<?xml version="1.0" standalone="no"?>
<!DOCTYPE svg PUBLIC "-//W3C//DTD SVG 20010904//EN"
 "http://www.w3.org/TR/2001/REC-SVG-20010904/DTD/svg10.dtd">
<svg version="1.0" xmlns="http://www.w3.org/2000/svg"
 width="1024.000000pt" height="1024.000000pt" viewBox="0 0 1024.000000 1024.000000"
 preserveAspectRatio="xMidYMid meet">

<g transform="translate(0.000000,1024.000000) scale(0.100000,-0.100000)"
fill="#000000" stroke="none">
<path d="M5476 9889 c-55 -65 -79 -124 -84 -209 l-4 -74 -19 34 c-10 19 -19
51 -19 70 l-1 35 -16 -30 c-9 -16 -18 -59 -21 -96 -6 -82 15 -150 63 -207 31
-36 34 -45 32 -93 l-2 -53 -60 -34 c-81 -45 -167 -132 -209 -212 -25 -48 -42
-104 -66 -218 -17 -84 -40 -181 -50 -215 -31 -98 -159 -420 -174 -435 -7 -7
-31 -19 -52 -27 -35 -11 -39 -17 -42 -49 -2 -25 -10 -39 -25 -47 -12 -6 -33
-21 -45 -33 l-24 -21 -24 30 c-13 16 -29 42 -35 57 -6 16 -14 28 -18 28 -3 0
-26 -42 -50 -92 -41 -85 -48 -93 -104 -127 -161 -97 -212 -137 -252 -194 -41
-59 -100 -103 -215 -162 -30 -16 -57 -30 -58 -31 -2 -1 14 -36 35 -78 l40 -75
-42 -73 -43 -73 35 -42 36 -43 -27 -95 c-14 -52 -26 -102 -26 -111 0 -18 -50
-92 -97 -144 l-32 -36 46 -47 c25 -26 49 -47 52 -47 3 0 12 -4 19 -9 10 -6 9
-24 -9 -91 l-21 -84 26 -21 26 -21 -38 -37 -38 -37 -49 51 c-50 51 -87 75
-134 89 l-26 7 -2 -101 c0 -60 -14 -178 -33 -291 -35 -212 -50 -451 -50 -840
0 -121 -3 -238 -7 -259 l-8 -39 -133 148 c-89 98 -132 153 -129 165 3 11 -19
40 -64 85 -38 37 -69 75 -69 82 0 8 -25 37 -55 65 -38 34 -55 58 -55 74 0 17
-19 43 -65 85 -36 34 -65 68 -65 76 0 8 -22 37 -50 65 -27 28 -50 57 -50 64 0
8 -15 28 -34 45 -19 16 -49 52 -66 79 -28 43 -30 52 -19 67 10 11 14 44 14
102 0 137 -46 203 -151 217 -43 5 -59 12 -78 35 -46 54 -43 172 5 233 18 23
18 26 0 112 -18 89 -18 89 -52 95 -57 9 -127 51 -213 127 -38 33 -38 33 -20
55 19 22 19 22 -2 4 -20 -17 -22 -17 -35 0 -9 11 -10 14 -1 9 17 -10 26 18 12
43 -6 12 -16 18 -22 15 -6 -4 -8 -3 -5 2 3 5 -3 21 -14 34 -37 47 -104 144
-127 185 l-23 40 7 -120 c3 -66 14 -185 25 -264 10 -79 19 -148 19 -152 0 -5
7 -9 15 -9 30 0 114 -50 136 -81 31 -43 36 -114 11 -159 -27 -51 -74 -73 -140
-65 -140 15 -202 97 -202 266 l0 90 -31 17 c-256 140 -457 517 -486 912 l-6
85 -18 -41 c-66 -150 -99 -407 -81 -624 35 -409 227 -799 551 -1120 92 -91
251 -221 251 -205 0 3 -8 22 -19 43 -29 57 -61 170 -61 214 0 30 7 46 29 69
48 48 121 34 202 -38 69 -62 80 -93 73 -186 l-7 -74 59 -20 c67 -23 65 -17 44
-142 -15 -92 -7 -175 25 -246 22 -50 22 -55 7 -76 -11 -15 -16 -46 -16 -91 -1
-47 -5 -71 -16 -80 -9 -7 -33 -39 -54 -71 -48 -71 -105 -123 -216 -194 -114
-74 -122 -82 -196 -205 -36 -59 -76 -116 -91 -128 -14 -11 -20 -20 -13 -20 23
0 134 67 185 112 30 27 46 36 42 24 -4 -10 -15 -49 -24 -85 -45 -184 -140
-289 -280 -308 -42 -6 -44 -7 -22 -15 36 -14 143 0 213 28 37 15 86 46 120 76
l57 51 -7 -39 c-23 -130 -86 -250 -165 -318 -83 -71 -214 -117 -332 -119 l-62
0 43 -19 c127 -56 326 -62 461 -15 142 50 248 142 312 272 50 101 67 184 76
355 l6 135 17 -41 c10 -22 39 -66 64 -98 94 -115 102 -120 79 -53 -39 112 -81
438 -70 548 9 92 17 114 47 131 59 34 80 110 48 172 -13 25 -13 32 3 63 10 19
22 48 28 65 l11 31 70 -74 c38 -41 70 -80 70 -86 0 -7 4 -13 9 -13 14 0 140
-159 147 -185 5 -18 17 -25 72 -36 61 -13 67 -16 70 -41 2 -14 13 -33 26 -41
13 -9 111 -114 219 -235 l197 -220 0 -100 0 -99 96 -92 97 -92 64 7 65 7 69
-69 c38 -38 69 -71 69 -75 0 -4 -27 -40 -60 -81 -44 -55 -58 -80 -53 -96 4
-15 -16 -53 -73 -139 -44 -65 -80 -121 -82 -125 -2 -4 15 0 37 9 23 9 44 13
47 10 12 -11 -258 -465 -288 -485 -13 -8 -66 -56 -118 -106 -52 -50 -147 -138
-210 -195 -128 -116 -419 -393 -819 -781 -145 -140 -284 -270 -310 -288 -25
-18 -53 -45 -61 -60 -49 -88 -90 -158 -143 -241 -32 -52 -52 -89 -44 -83 17
15 302 145 351 162 24 8 42 24 59 53 14 23 177 188 363 367 186 179 403 387
482 463 79 76 146 137 148 135 1 -2 -10 -45 -26 -96 -66 -211 -108 -455 -116
-687 l-6 -160 57 110 c72 136 140 247 202 328 64 84 164 188 174 181 5 -3 9
-37 9 -76 l0 -71 23 20 c23 22 243 173 251 173 5 0 21 -110 18 -122 -4 -16 11
-7 56 33 42 37 47 39 50 21 3 -17 -28 -166 -77 -375 -9 -37 -7 -40 67 -128
l75 -91 -7 -261 c-3 -144 -9 -315 -13 -379 l-6 -116 -64 -89 c-52 -73 -63 -93
-59 -119 6 -41 -20 -136 -41 -152 -9 -7 -80 -44 -158 -83 -99 -50 -142 -77
-147 -93 -56 -187 -59 -198 -47 -212 10 -12 88 -14 487 -14 l475 0 -6 48 c-3
26 -13 137 -23 247 -25 287 -20 323 102 705 53 168 105 334 116 370 11 36 25
68 32 72 6 3 58 42 116 85 l105 78 5 200 5 199 55 21 55 21 13 59 c7 33 17 76
22 96 l10 36 93 -24 c50 -13 115 -35 143 -48 52 -23 52 -23 67 -91 9 -38 21
-103 28 -144 9 -59 24 -97 69 -180 31 -58 81 -149 110 -203 l52 -99 20 33 c11
17 54 95 95 173 42 78 83 152 93 166 9 14 24 74 34 134 22 138 34 174 68 199
30 22 259 89 270 79 3 -4 14 -43 23 -87 10 -44 22 -85 27 -92 5 -6 31 -19 59
-29 l49 -18 1 -183 c1 -101 3 -187 4 -193 1 -5 3 -14 4 -19 0 -5 55 -48 120
-96 96 -69 121 -92 126 -116 4 -17 56 -180 116 -362 60 -183 114 -361 119
-397 14 -96 12 -181 -10 -414 -11 -115 -17 -213 -14 -217 3 -5 214 -9 468 -9
375 0 466 3 475 13 8 10 5 35 -13 98 -13 46 -27 98 -31 115 -5 29 -15 35 -93
68 -48 20 -118 56 -156 79 -61 37 -71 48 -83 87 -7 25 -12 62 -9 83 3 31 -2
47 -36 95 -98 142 -88 105 -98 343 -5 118 -10 289 -10 382 l0 167 70 83 c56
65 69 87 66 107 -3 14 -25 110 -50 214 -25 104 -44 192 -41 194 8 8 87 -31
132 -65 l43 -33 0 80 c0 44 3 80 6 80 17 0 162 -121 225 -187 77 -81 181 -234
242 -353 l38 -75 -6 55 c-32 295 -81 466 -201 703 l-25 48 63 29 c101 48 115
48 212 1 86 -41 190 -125 201 -163 5 -15 10 -17 18 -9 8 8 12 63 12 167 0 84
2 154 5 154 18 0 138 -112 181 -168 122 -161 196 -371 207 -592 l7 -125 29 90
c15 50 35 126 43 170 19 101 22 357 4 445 -32 163 -101 327 -201 475 -57 86
-257 293 -328 340 -24 15 -39 32 -35 36 16 16 163 59 254 75 170 29 427 10
554 -41 25 -10 -54 51 -120 92 -75 48 -228 118 -330 152 -102 33 -251 67 -500
111 -353 62 -531 137 -736 309 -72 60 -112 103 -159 172 -53 78 -61 95 -52
110 18 29 14 45 -19 76 -16 15 -55 56 -86 91 -50 56 -54 64 -35 68 18 5 20 14
21 90 0 46 -3 84 -8 84 -8 0 -131 173 -131 184 0 18 32 -4 131 -90 61 -53 113
-94 115 -91 8 8 -49 126 -110 227 -32 52 -100 150 -152 217 -52 68 -94 125
-94 127 0 3 16 8 35 12 19 3 37 10 40 14 3 5 -23 50 -57 102 -60 88 -65 93
-95 90 -24 -1 -33 2 -33 13 0 18 -76 212 -95 241 -12 18 -10 32 11 100 13 44
24 80 24 82 0 1 -34 2 -75 2 -53 0 -75 4 -75 13 0 18 60 228 71 248 8 15 2 22
-31 41 -35 20 -54 48 -32 48 4 0 27 27 52 60 31 42 49 58 60 54 8 -4 28 -9 44
-13 26 -6 33 -17 73 -122 l44 -115 31 4 31 5 -6 -42 c-5 -39 -2 -45 32 -77 21
-19 44 -52 51 -75 12 -36 12 -44 -7 -82 -30 -62 -36 -101 -28 -182 6 -70 8
-74 43 -96 20 -13 42 -35 49 -49 7 -14 20 -25 30 -25 22 0 93 -100 130 -182
15 -34 33 -63 39 -63 24 0 113 -236 136 -357 10 -57 14 -63 36 -63 21 0 23 -3
18 -22 -4 -13 -14 -52 -23 -87 -8 -36 -32 -99 -52 -141 l-37 -76 13 -119 c14
-126 33 -208 55 -237 11 -14 34 -17 143 -19 l130 -3 92 84 c50 47 94 94 98
105 3 11 -1 94 -9 184 -9 90 -14 167 -12 170 2 3 -2 61 -9 127 -8 71 -14 247
-15 425 -1 357 -9 479 -46 689 -15 85 -30 212 -33 282 l-6 127 -41 -18 c-23
-10 -70 -43 -105 -72 l-64 -54 -39 37 -40 37 27 12 c33 15 34 32 5 122 -22 68
-22 70 -4 81 10 6 38 25 61 42 l41 31 45 -30 c84 -59 284 -225 345 -288 139
-145 268 -316 373 -493 l68 -117 7 38 c3 21 6 76 6 123 0 148 3 154 73 186
l61 27 -64 59 c-180 164 -606 455 -850 581 -85 43 -160 84 -167 91 -10 10 -46
127 -40 132 1 1 67 -30 147 -70 227 -112 386 -146 694 -146 240 0 406 -31 563
-105 223 -105 316 -258 316 -525 0 -168 -38 -325 -108 -445 l-35 -60 61 65
c107 113 195 260 263 443 114 305 79 469 -128 609 -202 138 -506 202 -1074
228 -129 6 -266 15 -305 20 -158 23 -417 78 -417 89 0 10 32 55 49 67 12 10 8
23 -27 87 -23 42 -42 80 -42 86 0 5 18 40 39 78 l39 68 -48 22 c-50 22 -164
96 -174 112 -4 5 17 33 44 62 l51 52 62 -11 c34 -5 64 -8 65 -7 2 2 -1 25 -7
52 l-10 48 239 239 239 240 22 -28 c12 -15 32 -32 45 -36 33 -13 32 -59 -1
-90 -20 -19 -25 -33 -25 -75 0 -42 5 -56 25 -75 14 -13 25 -34 25 -48 0 -21
-4 -24 -25 -20 -22 5 -28 -1 -45 -40 -27 -61 -52 -134 -47 -139 3 -2 14 11 26
29 26 42 27 23 1 -84 -24 -101 -25 -205 -1 -278 l18 -55 15 35 14 35 28 -55
c50 -100 128 -187 217 -244 l26 -16 -24 82 c-27 93 -43 271 -25 282 6 3 23 -6
37 -21 22 -23 26 -25 22 -8 -7 25 -76 321 -83 355 -4 22 -1 20 30 -15 20 -22
35 -35 36 -29 0 6 -16 46 -34 90 -32 71 -38 79 -63 79 -39 1 -44 38 -10 74 41
43 40 107 -3 149 -40 41 -39 71 5 99 58 38 75 85 75 209 l0 106 53 54 c28 30
55 54 60 54 4 0 7 -77 7 -170 0 -193 11 -233 73 -270 18 -10 38 -24 45 -30 21
-18 14 -62 -15 -93 -38 -38 -40 -119 -5 -167 31 -41 26 -64 -16 -68 -37 -4
-37 -4 -17 -42 14 -26 13 -33 -19 -102 -32 -68 -80 -228 -69 -228 3 0 13 10
22 22 18 21 18 20 23 -49 11 -158 117 -289 279 -343 74 -25 172 -29 239 -9
l45 13 -53 7 c-114 15 -209 116 -248 262 -20 77 -17 100 7 53 82 -154 295
-234 475 -177 38 12 80 27 94 35 23 13 22 14 -22 9 -136 -16 -286 76 -397 242
-111 165 -153 244 -146 275 6 27 4 29 -29 36 -20 3 -36 11 -36 18 0 6 14 31
30 55 17 24 30 57 30 73 0 37 -24 84 -50 98 -15 8 -20 21 -20 48 0 31 5 41 29
55 16 9 39 37 50 60 20 41 21 59 21 364 l0 320 25 11 c17 8 28 24 36 57 10 40
14 45 41 45 16 0 30 6 33 13 2 6 29 89 59 183 58 179 63 199 43 174 -7 -8 -19
-16 -27 -18 -8 -2 -100 -46 -205 -98 -160 -80 -193 -99 -207 -127 -11 -20 -15
-44 -11 -64 5 -29 1 -35 -27 -50 -57 -31 -91 -64 -85 -82 5 -16 -157 -177
-878 -881 l-148 -144 -54 27 -55 27 -1 -43 c-1 -89 -14 -130 -56 -175 l-40
-44 -104 60 -104 59 -46 92 c-25 50 -48 94 -51 97 -3 2 -20 -20 -37 -51 -17
-30 -33 -55 -35 -55 -3 0 -22 16 -44 36 -26 22 -42 48 -46 69 -6 29 -12 34
-50 44 -54 13 -63 27 -128 189 -77 195 -113 313 -148 487 -34 170 -68 269
-107 316 -28 33 -22 38 13 10 52 -41 246 -91 349 -91 84 0 167 -19 218 -51
l48 -29 -19 27 c-27 37 -61 67 -96 85 l-29 15 39 13 c86 28 152 70 208 131 53
59 77 101 39 67 -60 -53 -213 -102 -318 -102 -93 0 -142 17 -81 28 20 4 57 16
81 26 46 20 136 78 100 65 -89 -32 -147 -29 -232 11 -39 19 -63 40 -95 85 -24
33 -58 80 -77 105 -18 25 -29 49 -25 53 5 4 27 13 49 19 22 7 58 23 80 37 37
23 38 25 10 18 -58 -15 -129 -6 -220 30 -143 56 -204 64 -290 40 -42 -12 16
36 84 70 58 28 75 32 148 32 73 0 80 1 58 12 -13 7 -52 20 -87 29 -124 32
-257 -3 -332 -86 -20 -22 -39 -40 -42 -40 -14 0 5 122 24 160 25 51 13 51 -32
-1z m459 -311 c39 -12 153 -113 142 -125 -4 -3 -28 8 -54 25 -66 42 -172 90
-241 107 l-57 15 85 -4 c47 -3 103 -11 125 -18z m-349 -143 c17 -13 13 -14
-48 -15 -72 0 -83 5 -45 20 34 13 71 12 93 -5z m2919 -92 c-108 -102 -201
-183 -209 -183 -18 0 0 27 47 69 113 104 231 201 236 195 3 -3 -30 -40 -74
-81z m-2809 -75 c28 -30 17 -30 -18 0 -16 13 -24 32 -15 32 2 0 16 -14 33 -32z
m-80 -24 c50 -26 94 -61 94 -75 0 -4 -21 3 -47 15 -27 13 -65 31 -86 41 l-38
18 -81 -42 c-44 -23 -82 -41 -84 -38 -19 19 116 106 167 107 14 0 48 -12 75
-26z m226 -126 c34 -44 60 -97 55 -111 -2 -6 -24 24 -50 66 -47 78 -50 104 -5
45z m-264 -47 c41 -32 185 -122 217 -135 20 -8 19 -8 -2 -18 -27 -13 -83 6
-180 58 l-63 34 0 -205 c0 -130 -4 -205 -10 -205 -6 0 -10 73 -10 198 0 109
-3 201 -6 204 -3 3 -45 -14 -93 -39 -49 -24 -108 -47 -132 -50 -44 -5 -44 -5
56 60 55 36 118 78 140 95 22 17 41 31 43 31 2 1 20 -12 40 -28z m2692 -456
c0 -269 0 -275 -22 -295 -30 -28 -69 -25 -99 6 -23 25 -24 30 -27 221 l-4 196
73 73 c41 41 75 74 76 74 2 0 3 -124 3 -275z m-2962 8 c109 -43 169 -88 203
-155 11 -21 21 -38 24 -38 2 0 23 28 46 61 38 56 49 65 133 104 169 79 187 69
28 -15 -105 -57 -119 -69 -159 -145 -25 -47 -27 -60 -31 -202 -2 -84 -8 -153
-13 -153 -5 0 -9 65 -9 144 0 141 -1 145 -31 202 -42 80 -49 87 -166 156 -132
77 -138 87 -25 41z m2527 -231 c-3 -18 -15 -42 -26 -53 -23 -23 -72 -25 -89
-3 -11 13 -5 24 46 75 56 56 59 58 67 37 4 -13 5 -38 2 -56z m-1749 -160 c-7
-28 -100 -132 -119 -132 -5 0 -4 7 3 15 7 8 9 15 5 15 -5 0 0 9 10 20 10 11
22 17 27 14 4 -3 7 -1 6 4 -3 11 63 104 70 98 2 -3 1 -18 -2 -34z m-941 -130
c22 -20 61 -56 88 -80 26 -23 46 -44 44 -46 -1 -1 4 -10 12 -19 26 -32 -3 -17
-76 39 -46 35 -72 62 -69 70 3 8 -1 14 -9 14 -8 0 -15 5 -15 12 0 6 -7 20 -17
30 -29 33 1 19 42 -20z m790 -37 c-85 -71 -105 -86 -105 -78 0 5 20 24 45 41
26 18 43 36 40 41 -5 10 10 19 35 20 9 1 3 -9 -15 -24z m-115 -69 c0 -10 -32
-36 -43 -36 -7 0 -1 9 13 20 26 21 30 23 30 16z m-1196 -58 c22 -48 45 -140
60 -253 5 -32 0 -25 -22 35 -16 41 -36 89 -44 105 -40 78 -55 165 -28 165 5 0
20 -24 34 -52z m1876 25 c0 -33 -112 -322 -118 -304 -5 14 46 248 60 276 14
27 39 55 50 55 4 0 8 -12 8 -27z m-277 -56 c-29 -47 -89 -126 -97 -127 -10 0
15 40 62 98 33 40 52 56 35 29z m-1795 -144 c-7 -15 -16 -27 -20 -25 -4 1 -18
-9 -31 -22 -14 -13 -42 -33 -65 -45 -40 -20 -40 -20 -35 0 7 26 50 69 110 108
51 34 63 29 41 -16z m2275 1 c55 -43 97 -95 97 -121 0 -12 -149 89 -162 111
-10 15 -10 56 0 56 4 0 33 -20 65 -46z m-1683 -70 c63 -83 81 -122 30 -64 -34
39 -100 135 -100 146 0 10 4 6 70 -82z m1090 54 c0 -18 -2 -20 -9 -8 -6 8 -7
18 -5 22 9 14 14 9 14 -14z m-25 -18 c-3 -5 -11 -10 -16 -10 -6 0 -7 5 -4 10
3 6 11 10 16 10 6 0 7 -4 4 -10z m-1802 -247 c92 -26 167 -50 167 -55 0 -20
-103 -5 -210 32 l-115 39 -38 -26 c-20 -14 -40 -23 -44 -19 -6 6 55 76 66 76
4 0 81 -21 174 -47z m2720 12 c20 -20 37 -37 37 -40 0 -14 -61 -3 -72 13 -22
30 -34 33 -74 16 -109 -47 -284 -79 -298 -56 -5 8 316 99 354 101 8 0 32 -15
53 -34z m-665 -198 l24 -25 -67 24 c-36 13 -74 24 -85 24 -30 0 -34 19 -10 45
l22 23 47 -33 c25 -18 57 -45 69 -58z m-1324 -44 c177 -125 373 -293 341 -293
-9 0 -104 72 -240 181 -163 131 -224 198 -101 112z m-2979 -33 l20 -25 -22 19
c-13 11 -23 24 -23 29 0 6 1 8 3 6 1 -2 11 -15 22 -29z m2053 -33 c26 -26 30
-36 20 -44 -28 -22 -46 -21 -69 3 -20 21 -21 27 -9 49 7 14 16 25 20 25 3 0
21 -15 38 -33z m2952 2 c9 -16 8 -26 -5 -45 -18 -27 -23 -29 -47 -10 -23 17
-23 25 4 53 26 28 34 29 48 2z m-4933 -109 c-1 -14 -4 -16 -14 -8 -16 13 -17
22 -1 12 8 -5 9 -2 5 10 -4 9 -3 15 2 11 6 -3 9 -14 8 -25z m28 -20 c3 -5 1
-10 -4 -10 -6 0 -11 5 -11 10 0 6 2 10 4 10 3 0 8 -4 11 -10z m3613 -254 c-8
-7 -28 -11 -51 -8 -54 6 -56 22 -2 18 25 -2 45 1 45 6 0 5 5 6 10 3 7 -4 6
-11 -2 -19z m114 -130 c36 -30 76 -69 88 -87 l24 -32 -28 -24 c-39 -33 -55
-28 -21 7 l29 30 -25 26 c-13 14 -42 37 -64 50 -39 22 -95 84 -77 84 4 0 38
-24 74 -54z m992 -61 l31 -80 43 -3 c31 -2 65 6 117 27 82 34 85 35 85 21 0
-5 -36 -28 -80 -50 l-81 -41 -59 22 -60 22 -21 70 c-11 38 -23 76 -26 85 -4 9
-1 13 7 10 7 -2 26 -40 44 -83z m-2589 43 c-4 -17 -15 -53 -24 -81 -17 -50
-25 -56 -114 -84 -18 -6 -150 57 -177 85 -13 13 -13 14 5 7 11 -4 58 -21 104
-37 122 -43 138 -33 185 120 11 35 29 27 21 -10z m463 -210 l51 -67 -32 -23
c-18 -12 -33 -22 -35 -23 -1 -1 13 -57 33 -124 19 -68 35 -131 35 -141 0 -17
-9 -20 -74 -22 l-73 -3 24 -80 c23 -79 23 -80 5 -115 -10 -19 -36 -81 -57
-137 -34 -92 -40 -102 -59 -97 -17 4 -32 -11 -89 -91 -38 -53 -67 -98 -65 -99
1 -2 22 -10 45 -17 l42 -14 -76 -90 c-103 -124 -208 -282 -260 -393 -23 -51
-43 -96 -43 -99 0 -7 76 54 168 135 120 106 109 54 -20 -100 -37 -43 -38 -48
-38 -121 0 -61 3 -78 17 -85 15 -9 15 -12 -3 -34 -11 -14 -47 -51 -82 -82 -60
-56 -78 -95 -52 -111 15 -10 12 -19 -19 -59 -25 -31 -30 -34 -41 -21 -10 12
-11 48 -3 168 l10 152 -34 67 c-18 37 -42 103 -52 145 -10 43 -22 86 -26 96
-5 13 -2 17 14 17 12 0 23 6 25 13 2 6 11 46 20 87 23 101 109 315 127 315 8
0 20 16 27 35 7 19 36 74 65 122 39 65 57 88 73 88 12 0 25 10 32 25 6 14 29
37 51 52 35 25 40 34 47 81 9 71 0 135 -27 200 -21 51 -21 53 -4 91 9 22 32
54 50 71 29 28 32 37 28 71 -5 38 -5 39 25 39 30 0 31 2 69 115 26 79 42 115
53 115 8 1 26 7 40 15 14 7 28 11 31 7 4 -4 30 -37 57 -74z m-2439 -85 c34
-47 61 -90 61 -94 0 -4 -7 -9 -15 -13 -11 -4 -32 19 -72 79 -31 47 -63 85 -72
85 -13 1 -13 3 3 15 11 8 23 15 27 15 5 0 35 -39 68 -87z m329 -248 l-3 -40
-30 57 -29 58 25 26 24 26 8 -44 c4 -24 6 -61 5 -83z m1078 26 c-24 -46 -36
-38 -36 26 l0 58 26 -26 c25 -26 25 -27 10 -58z m3733 -3 c1 -44 -11 -49 -27
-13 -12 26 -26 32 -37 15 -3 -5 -2 -10 3 -10 6 0 8 -9 5 -20 -7 -26 -20 -26
-28 1 -5 16 2 31 31 60 33 34 39 37 46 22 3 -10 7 -35 7 -55z m-1761 -52 c75
-14 171 -29 212 -34 75 -9 75 -9 -55 -10 -71 -1 -159 3 -194 8 -35 6 -66 8
-69 5 -3 -3 -7 -33 -9 -68 -2 -34 -7 -73 -10 -87 l-6 -25 -7 25 c-5 14 -8 56
-9 94 l-1 69 -77 -7 c-177 -14 -278 -18 -272 -12 3 4 66 15 140 26 74 11 148
24 164 29 43 13 42 13 193 -13z m1726 8 c3 -8 2 -12 -4 -9 -6 3 -10 10 -10 16
0 14 7 11 14 -7z m-4838 -46 c35 -37 97 -112 143 -171 9 -12 11 -21 4 -28 -6
-6 -34 16 -80 65 -39 40 -75 75 -80 77 -18 8 -55 70 -49 84 8 23 19 18 62 -27z
m4815 5 c-12 -20 -14 -14 -5 12 4 9 9 14 11 11 3 -2 0 -13 -6 -23z m-3352
-205 c1 -26 -2 -49 -6 -51 -5 -3 -6 14 -5 37 5 59 -16 76 -57 45 -34 -25 -45
-52 -62 -154 -12 -68 -36 -141 -44 -133 -10 10 43 291 56 298 8 5 34 24 59 43
l45 35 7 -37 c4 -20 7 -57 7 -83z m3126 67 c28 -22 52 -41 54 -42 2 -2 14 -64
26 -138 17 -106 19 -135 8 -135 -13 0 -14 4 -34 105 -18 95 -46 159 -80 184
-34 25 -34 25 -49 -9 l-11 -25 6 25 c2 14 5 40 5 59 0 25 3 31 13 24 6 -5 35
-27 62 -48z m-1018 -1 c-3 -4 -39 -15 -79 -24 -214 -53 -385 -102 -415 -121
-48 -30 -86 -84 -80 -111 3 -13 2 -39 -2 -58 -8 -38 -13 -30 -25 41 -5 27 -20
49 -55 82 -65 61 -53 56 -416 156 -145 40 -5 18 242 -38 146 -33 164 -40 209
-83 l32 -30 20 29 c30 43 74 58 307 107 116 24 219 46 230 49 31 7 39 7 32 1z
m-2434 -70 c21 -8 23 -24 3 -24 -25 0 -46 -30 -46 -66 0 -21 -4 -33 -10 -29
-5 3 -10 37 -10 75 0 68 0 69 23 60 12 -6 30 -13 40 -16z m3767 -49 c0 -41 -4
-75 -8 -75 -4 0 -13 20 -20 45 -7 27 -20 49 -34 56 -21 11 -21 12 13 30 19 10
37 18 42 19 4 0 7 -34 7 -75z m-306 29 c9 -24 7 -28 -9 -14 -17 14 -20 30 -6
30 5 0 12 -7 15 -16z m-4648 -84 l57 -54 -11 -41 c-6 -22 -18 -57 -27 -78 -14
-33 -18 -36 -36 -27 -11 6 -28 8 -38 5 -14 -4 -20 1 -25 26 -13 67 -3 233 14
227 5 -2 34 -28 66 -58z m4964 -157 c-1 -38 -4 -53 -9 -43 -18 31 -15 100 5
100 2 0 4 -26 4 -57z m-3820 37 c8 -5 10 -10 4 -10 -6 0 -15 -21 -20 -47 l-10
-48 -5 58 c-4 58 1 66 31 47z m2523 -187 c3 -10 15 -42 26 -70 l21 -53 -40
-20 c-46 -24 -74 -27 -42 -4 12 8 22 25 22 37 0 36 -43 100 -70 108 -22 5 -20
7 15 11 22 3 45 5 51 6 7 1 14 -6 17 -15z m-1415 -208 c8 -7 12 -23 10 -36 -3
-23 -4 -22 -38 12 -19 19 -56 48 -82 63 -27 15 -48 29 -48 31 0 7 144 -56 158
-70z m1485 -197 c41 -58 40 -62 -25 -97 l-43 -24 29 31 29 31 -32 49 c-36 57
-37 62 -12 62 11 0 33 -21 54 -52z m-1790 -567 c77 -35 90 -47 61 -58 -13 -5
-154 81 -154 94 0 5 -4 7 93 -36z m2233 20 c-23 -25 -152 -83 -173 -78 -11 2
17 21 77 50 105 51 121 56 96 28z m94 -245 c-36 -19 -67 -32 -70 -29 -6 6 22
23 75 45 67 28 64 20 -5 -16z m-2575 -454 c-40 -35 -166 -123 -240 -166 l-30
-18 30 26 c33 29 234 166 243 166 3 0 2 -4 -3 -8z m2670 -32 c3 -6 -1 -7 -9
-4 -18 7 -21 14 -7 14 6 0 13 -4 16 -10z m142 -76 c0 -7 -15 2 -34 19 -18 17
-33 33 -33 34 0 2 15 -7 33 -19 19 -12 34 -27 34 -34z m44 -21 c12 -16 12 -17
-2 -6 -9 7 -20 9 -24 5 -5 -4 -5 -1 -1 6 9 16 11 15 27 -5z m20 -90 c15 -9 31
-23 34 -31 4 -11 2 -12 -7 -5 -7 5 -26 19 -42 31 -34 26 -26 29 15 5z"/>
<path d="M2315 6901 c-3 -5 5 -13 17 -17 13 -4 26 -11 29 -16 5 -8 59 -20 59
-13 0 4 -87 55 -94 55 -3 0 -7 -4 -11 -9z"/>
</g>
</svg>
